<svg width="94" height="93" viewBox="0 0 94 93" fill="none" xmlns="http://www.w3.org/2000/svg">
<path d="M62.3666 15.4667C70.7767 15.5135 75.3313 15.8864 78.3024 18.8575C81.7 22.2551 81.7 27.7234 81.7 38.66V61.86C81.7 72.7965 81.7 78.2648 78.3024 81.6624C74.9049 85.0599 69.4366 85.0599 58.5 85.0599H35.3C24.3634 85.0599 18.8951 85.0599 15.4975 81.6624C12.1 78.2648 12.1 72.7965 12.1 61.86V38.66C12.1 27.7234 12.1 22.2551 15.4975 18.8575C18.4686 15.8864 23.0232 15.5135 31.4333 15.4667" stroke="#F06523" stroke-width="4.35"/>
<path d="M35.3 51.8133L41.9286 58L58.5 42.5333" stroke="#8C3B22" stroke-width="4" stroke-linecap="round" stroke-linejoin="round"/>
<path d="M31.4333 13.5333C31.4333 10.33 34.0301 7.73328 37.2333 7.73328H56.5667C59.7699 7.73328 62.3667 10.33 62.3667 13.5333V17.3999C62.3667 20.6032 59.7699 23.1999 56.5667 23.1999H37.2333C34.0301 23.1999 31.4333 20.6032 31.4333 17.3999V13.5333Z" stroke="#8C3B22" stroke-width="4"/>
</svg>
